<svg width="87" height="98" viewBox="0 0 87 98" fill="none" xmlns="http://www.w3.org/2000/svg">
<g clip-path="url(#clip0_1005_65111)">
<path d="M49.3207 75.5106C70.1303 75.5106 86.9999 58.607 86.9999 37.7553C86.9999 16.9036 70.1303 0 49.3207 0C28.5111 0 11.6416 16.9036 11.6416 37.7553C11.6416 58.607 28.5111 75.5106 49.3207 75.5106Z" fill="#F2F2F2"/>
<path d="M73.9435 16.8847H4.92053C4.77252 16.8816 4.6551 16.7588 4.65827 16.6105C4.66133 16.4666 4.77698 16.3507 4.92053 16.3477H73.9435C74.0915 16.3508 74.2089 16.4736 74.2058 16.6219C74.2027 16.7658 74.0871 16.8817 73.9435 16.8847Z" fill="#CACACA"/>
<path d="M50.4207 25.9336H31.3401C29.9069 25.9336 28.7451 27.0978 28.7451 28.5338V28.5338C28.7451 29.9699 29.9069 31.1341 31.3401 31.1341H50.4207C51.8539 31.1341 53.0157 29.9699 53.0157 28.5338C53.0157 27.0978 51.8539 25.9336 50.4207 25.9336Z" fill="white"/>
<path d="M19.0139 36.3359H62.747C64.1802 36.3359 65.342 37.5001 65.342 38.9362C65.342 40.3723 64.1802 41.5364 62.747 41.5364H19.0139C17.5808 41.5364 16.4189 40.3723 16.4189 38.9362C16.4189 37.5001 17.5808 36.3359 19.0139 36.3359Z" fill="white"/>
<path d="M19.0139 46.7363H62.747C64.1802 46.7363 65.342 47.9005 65.342 49.3366C65.342 50.7726 64.1802 51.9368 62.747 51.9368H19.0139C17.5808 51.9368 16.4189 50.7726 16.4189 49.3366C16.4189 47.9005 17.5808 46.7363 19.0139 46.7363Z" fill="white"/>
<path d="M13.5943 97.772L13.4914 97.7619C9.99927 97.4009 6.84244 95.519 4.85952 92.6162C4.31638 91.8073 3.87705 90.9331 3.55188 90.0143L3.52062 89.9267L3.61315 89.9191C4.71786 89.8301 5.85273 89.6422 6.35688 89.5529L3.10598 88.4492L3.08588 88.3525C2.89315 87.4452 3.27074 86.5116 4.03951 85.9948C4.81036 85.453 5.83257 85.4357 6.62128 85.951C6.97522 86.1775 7.34543 86.4019 7.70342 86.6189C8.93366 87.3646 10.2058 88.1356 11.1596 89.1906C12.6058 90.8224 13.2398 93.0211 12.8848 95.1744L13.5943 97.772Z" fill="#F2F2F2"/>
<path d="M25.4116 96.1519L27.0137 96.1517L27.776 89.959L25.4111 89.9591L25.4116 96.1519Z" fill="#A0616A"/>
<path d="M25.3546 97.8266L30.2817 97.8264V97.764C30.2816 96.7027 29.423 95.8424 28.3639 95.8424H28.3638L27.4638 95.1582L25.7846 95.8425L25.3545 95.8425L25.3546 97.8266Z" fill="#2F2E41"/>
<path d="M12.5703 91.7037L13.8518 92.667L18.1706 88.1719L16.2789 86.75L12.5703 91.7037Z" fill="#A0616A"/>
<path d="M11.5225 93.011L15.4638 95.9737L15.5012 95.9238C16.1367 95.0748 15.9652 93.8704 15.118 93.2334L15.1179 93.2334L14.8078 92.1449L13.0548 91.6825L12.7107 91.4238L11.5225 93.011H11.5225Z" fill="#2F2E41"/>
<path d="M17.897 67.0901C17.897 67.0901 17.9855 69.5077 18.0971 71.4465C18.1154 71.7644 17.3719 72.1098 17.3912 72.4558C17.404 72.6852 17.5437 72.9083 17.5567 73.1476C17.5704 73.4002 17.3774 73.6237 17.3912 73.8849C17.4046 74.1401 17.6247 74.4327 17.638 74.6939C17.7809 77.5046 18.2988 80.8694 17.7802 81.8101C17.5246 82.2736 14.2666 88.6959 14.2666 88.6959C14.2666 88.6959 16.0818 91.4242 16.6005 90.5148C17.2855 89.3136 22.5648 83.6939 22.5648 82.6208C22.5648 81.5489 23.7861 73.5159 23.7861 73.5159L24.6378 78.2698L25.0283 79.2116L24.9056 79.7646L25.1579 80.5108L25.1716 81.2494L25.4173 82.6208C25.4173 82.6208 24.6782 93.3054 25.0944 93.603C25.5119 93.9018 27.5333 94.4384 27.7719 93.9018C28.0091 93.3652 29.5536 82.7507 29.5536 82.7507C29.5536 82.7507 29.8025 77.8864 30.0722 73.3652C30.0878 73.1027 30.2719 72.7857 30.2862 72.5272C30.303 72.2271 30.1863 71.8373 30.2019 71.5463C30.2187 71.2124 30.3665 70.9772 30.3808 70.6576C30.491 68.1878 29.8723 65.1803 29.6753 64.8841C29.0801 63.9902 28.5446 63.2756 28.5446 63.2756C28.5446 63.2756 20.5288 60.6366 18.3869 63.3182L17.8971 67.0901L17.897 67.0901Z" fill="#2F2E41"/>
<path d="M25.8915 42.2306L22.7138 41.5938L21.2309 43.6103C18.4639 46.3365 18.4223 48.7426 18.9162 52.5993V58.0122L18.5587 61.6409C18.5587 61.6409 17.2931 64.2935 18.5984 64.9111C19.9038 65.5286 28.4779 65.476 29.2965 65.2295C30.1151 64.9829 29.4056 64.6803 29.1906 63.5313C28.7868 61.3731 29.0569 62.4141 29.0847 61.727C29.4831 51.8699 28.5551 47.8232 28.4608 46.7596L26.8448 43.8226L25.8915 42.2306Z" fill="#3F3D56"/>
<path d="M42.64 50.1773C42.3089 50.8061 41.5317 51.0468 40.9042 50.7149C40.8373 50.6795 40.7736 50.6383 40.714 50.5917L33.8516 54.9578L33.8713 52.5807L40.5376 48.7043C41.0125 48.1708 41.829 48.1241 42.3614 48.5999C42.8069 48.998 42.9221 49.6501 42.64 50.1773Z" fill="#A0616A"/>
<path d="M23.3827 44.9827L22.6014 44.8997C21.8795 44.8247 21.1712 45.1345 20.7353 45.7159C20.5684 45.9365 20.4484 46.189 20.383 46.4579L20.3825 46.4601C20.1866 47.2695 20.4939 48.1177 21.1625 48.6126L23.8609 50.606C25.7546 53.17 29.3135 54.871 33.4881 56.253L39.9771 52.2148L37.6819 49.4295L33.2311 51.8196L26.6153 46.6879L26.6115 46.6848L24.0935 45.0593L23.3827 44.9827L23.3827 44.9827Z" fill="#3F3D56"/>
<path d="M24.8179 40.6664C26.8644 40.6664 28.5235 39.004 28.5235 36.9533C28.5235 34.9026 26.8644 33.2402 24.8179 33.2402C22.7713 33.2402 21.1123 34.9026 21.1123 36.9533C21.1123 39.004 22.7713 40.6664 24.8179 40.6664Z" fill="#A0616A"/>
<path d="M24.9037 40.668C24.8739 40.669 24.8439 40.6696 24.814 40.6704C24.8012 40.7037 24.7874 40.7367 24.7715 40.7691L24.9037 40.668V40.668Z" fill="#2F2E41"/>
<path d="M25.9199 37.0566C25.9257 37.0932 25.9346 37.1292 25.9465 37.1643C25.9416 37.1276 25.9327 37.0915 25.9199 37.0566Z" fill="#2F2E41"/>
<path d="M28.5709 33.3985C28.4184 33.8731 28.2822 33.2711 27.7805 33.3794C27.1769 33.5097 26.4745 33.4649 25.9802 33.0942C25.2437 32.5527 24.2893 32.407 23.4253 32.704C22.5795 33.0038 21.1625 33.2152 20.9421 34.0866C20.8655 34.3895 20.8351 34.7183 20.6494 34.9693C20.4871 35.1888 20.2309 35.3139 20.0166 35.4829C19.2931 36.0533 19.8461 37.6738 20.1885 38.5301C20.5309 39.3864 21.3164 40.0102 22.18 40.3297C23.0156 40.6389 23.9225 40.6934 24.8139 40.6691C24.9689 40.2662 24.902 39.8008 24.774 39.3831C24.6355 38.931 24.4305 38.4946 24.3726 38.0251C24.3148 37.5557 24.4418 37.0225 24.8346 36.7602C25.1957 36.5191 25.7832 36.666 25.9206 37.0558C25.8405 36.5684 26.3331 36.0969 26.8411 36.014C27.3865 35.9249 27.9318 36.1222 28.4757 36.2204C29.0195 36.3186 28.8264 34.0245 28.5709 33.3985Z" fill="#2F2E41"/>
<path d="M49.2951 43.0948C49.6405 38.9125 46.537 35.2414 42.3631 34.8953C38.1892 34.5492 34.5256 37.659 34.1802 41.8413C33.8347 46.0236 36.9383 49.6947 41.1122 50.0408C45.286 50.3869 48.9497 47.2771 49.2951 43.0948Z" fill="#F9A826"/>
<path d="M43.7295 39.3029L41.7375 41.2989L39.7455 39.3029C39.423 38.9798 38.9002 38.9798 38.5778 39.3029C38.2553 39.626 38.2553 40.1499 38.5778 40.473L40.5698 42.469L38.5778 44.465C38.2556 44.7884 38.2561 45.3123 38.5789 45.6351C38.9012 45.9575 39.4232 45.9575 39.7455 45.6351L41.7375 43.6391L43.7295 45.6351C44.0522 45.9579 44.575 45.9574 44.8972 45.634C45.2189 45.311 45.2189 44.788 44.8972 44.465L42.9052 42.469L44.8972 40.473C45.2197 40.1499 45.2197 39.626 44.8972 39.3029C44.5748 38.9798 44.0519 38.9798 43.7295 39.3029Z" fill="white"/>
<path d="M38.749 36.082C38.9725 36.7568 38.6078 37.4853 37.9344 37.7093C37.8626 37.7332 37.7889 37.7507 37.714 37.7616L36.1074 45.7462L34.4092 44.0862L36.2327 36.5824C36.1773 35.8697 36.7089 35.247 37.4201 35.1914C38.0152 35.145 38.5646 35.5131 38.749 36.082Z" fill="#A0616A"/>
<path d="M21.6765 46.4092L21.0759 46.9167C20.5221 47.3867 20.2548 48.1133 20.3718 48.8311C20.415 49.1044 20.5138 49.366 20.6622 49.5995L20.6634 49.6013C21.1107 50.3034 21.9343 50.6684 22.7536 50.5275L26.0573 49.9565C29.2147 50.3623 32.9035 48.9666 36.7888 46.9048L38.3731 39.4172L34.7783 39.1484L33.4183 44.0214L25.1425 45.2523L25.1376 45.253L22.2237 45.9483L21.6765 46.4092L21.6765 46.4092Z" fill="#3F3D56"/>
<path d="M40.4883 97.9536L0.176059 97.9993C0.07851 97.9989 -0.000315024 97.9194 9.46616e-07 97.8217C0.00031395 97.7244 0.0789536 97.6456 0.176059 97.6453L40.4883 97.5996C40.5858 97.5999 40.6646 97.6794 40.6643 97.7772C40.664 97.8745 40.5854 97.9533 40.4883 97.9536Z" fill="#CACACA"/>
<path d="M8.42245 13.4822C9.11528 13.4822 9.67693 12.9068 9.67693 12.1971C9.67693 11.4874 9.11528 10.9121 8.42245 10.9121C7.72962 10.9121 7.16797 11.4874 7.16797 12.1971C7.16797 12.9068 7.72962 13.4822 8.42245 13.4822Z" fill="#3F3D56"/>
<path d="M12.7564 13.4822C13.4493 13.4822 14.0109 12.9068 14.0109 12.1971C14.0109 11.4874 13.4493 10.9121 12.7564 10.9121C12.0636 10.9121 11.502 11.4874 11.502 12.1971C11.502 12.9068 12.0636 13.4822 12.7564 13.4822Z" fill="#3F3D56"/>
<path d="M17.0894 13.4822C17.7823 13.4822 18.3439 12.9068 18.3439 12.1971C18.3439 11.4874 17.7823 10.9121 17.0894 10.9121C16.3966 10.9121 15.835 11.4874 15.835 12.1971C15.835 12.9068 16.3966 13.4822 17.0894 13.4822Z" fill="#3F3D56"/>
<path d="M22.0309 13.2129C21.9924 13.2129 21.954 13.1979 21.9249 13.1681L21.0785 12.3011C21.022 12.2433 21.022 12.151 21.0785 12.0932L21.9249 11.2263C21.9823 11.1676 22.0764 11.1667 22.1347 11.224C22.1933 11.2814 22.1943 11.3755 22.137 11.4341L21.392 12.1972L22.137 12.9603C22.1943 13.0189 22.1933 13.1131 22.1347 13.1705C22.1058 13.1988 22.0684 13.2129 22.0309 13.2129Z" fill="#3F3D56"/>
<path d="M23.454 13.213C23.4166 13.213 23.3791 13.1989 23.3503 13.1706C23.2917 13.1132 23.2907 13.0191 23.348 12.9604L24.0929 12.1973L23.348 11.4343C23.2907 11.3756 23.2917 11.2815 23.3503 11.2241C23.4087 11.1666 23.5028 11.1677 23.5601 11.2264L24.4064 12.0933C24.4629 12.1511 24.4629 12.2434 24.4064 12.3012L23.5601 13.1683C23.531 13.198 23.4926 13.213 23.454 13.213Z" fill="#3F3D56"/>
<path d="M67.7357 11.0605H66.1618C65.9823 11.0605 65.8369 11.2062 65.8369 11.3861V12.9647C65.8369 13.1445 65.9823 13.2902 66.1618 13.2902H67.7357C67.9152 13.2902 68.0621 13.1445 68.0621 12.9647V11.3861C68.0621 11.2062 67.9152 11.0605 67.7357 11.0605Z" fill="#3F3D56"/>
<path d="M63.8783 11.0605H62.3044C62.1249 11.0605 61.9795 11.2062 61.9795 11.3861V12.9647C61.9795 13.1445 62.1249 13.2902 62.3044 13.2902H63.8783C64.0578 13.2902 64.2046 13.1445 64.2046 12.9647V11.3861C64.2046 11.2062 64.0578 11.0605 63.8783 11.0605Z" fill="#3F3D56"/>
<path d="M71.3695 11.1348H69.7956C69.6161 11.1348 69.4707 11.2804 69.4707 11.4603V13.0389C69.4707 13.2187 69.6161 13.3644 69.7956 13.3644H71.3695C71.549 13.3644 71.6958 13.2187 71.6958 13.0389V11.4603C71.6958 11.2804 71.549 11.1348 71.3695 11.1348Z" fill="#3F3D56"/>
<path d="M47.647 11.7363H35.066C34.8465 11.7363 34.6699 11.9147 34.6699 12.1332C34.6699 12.3517 34.8465 12.5301 35.066 12.5301H47.647C47.865 12.5301 48.043 12.3517 48.043 12.1332C48.043 11.9147 47.865 11.7363 47.647 11.7363Z" fill="#3F3D56"/>
</g>
<defs>
<clipPath id="clip0_1005_65111">
<rect width="87" height="98" fill="white"/>
</clipPath>
</defs>
</svg>
